<mxfile host="Electron" modified="2023-09-07T14:47:06.721Z" agent="Mozilla/5.0 (Windows NT 10.0; Win64; x64) AppleWebKit/537.36 (KHTML, like Gecko) draw.io/21.6.5 Chrome/114.0.5735.243 Electron/25.3.1 Safari/537.36" etag="ARRWpRBs7_Qv03QMScJ2" version="21.6.5" type="device">
  <diagram name="Page-1" id="2YBvvXClWsGukQMizWep">
    <mxGraphModel dx="1418" dy="828" grid="1" gridSize="10" guides="1" tooltips="1" connect="1" arrows="1" fold="1" page="1" pageScale="1" pageWidth="827" pageHeight="1169" math="0" shadow="0">
      <root>
        <mxCell id="0" />
        <mxCell id="1" parent="0" />
        <mxCell id="sdndvzC6xCfLdtrrBHmv-1" value=":登入頁面" style="shape=umlLifeline;perimeter=lifelinePerimeter;whiteSpace=wrap;html=1;container=0;dropTarget=0;collapsible=0;recursiveResize=0;outlineConnect=0;portConstraint=eastwest;newEdgeStyle={&quot;edgeStyle&quot;:&quot;elbowEdgeStyle&quot;,&quot;elbow&quot;:&quot;vertical&quot;,&quot;curved&quot;:0,&quot;rounded&quot;:0};" vertex="1" parent="1">
          <mxGeometry x="185" y="60" width="100" height="850" as="geometry" />
        </mxCell>
        <mxCell id="sdndvzC6xCfLdtrrBHmv-2" value="" style="html=1;points=[];perimeter=orthogonalPerimeter;outlineConnect=0;targetShapes=umlLifeline;portConstraint=eastwest;newEdgeStyle={&quot;edgeStyle&quot;:&quot;elbowEdgeStyle&quot;,&quot;elbow&quot;:&quot;vertical&quot;,&quot;curved&quot;:0,&quot;rounded&quot;:0};" vertex="1" parent="sdndvzC6xCfLdtrrBHmv-1">
          <mxGeometry x="45" y="80" width="10" height="90" as="geometry" />
        </mxCell>
        <mxCell id="sdndvzC6xCfLdtrrBHmv-3" value="" style="shape=umlLifeline;perimeter=lifelinePerimeter;whiteSpace=wrap;html=1;container=1;dropTarget=0;collapsible=0;recursiveResize=0;outlineConnect=0;portConstraint=eastwest;newEdgeStyle={&quot;edgeStyle&quot;:&quot;elbowEdgeStyle&quot;,&quot;elbow&quot;:&quot;vertical&quot;,&quot;curved&quot;:0,&quot;rounded&quot;:0};participant=umlActor;size=60;" vertex="1" parent="1">
          <mxGeometry x="50" y="50" width="30" height="860" as="geometry" />
        </mxCell>
        <mxCell id="sdndvzC6xCfLdtrrBHmv-4" value=":會員資料庫" style="shape=umlLifeline;perimeter=lifelinePerimeter;whiteSpace=wrap;html=1;container=0;dropTarget=0;collapsible=0;recursiveResize=0;outlineConnect=0;portConstraint=eastwest;newEdgeStyle={&quot;edgeStyle&quot;:&quot;elbowEdgeStyle&quot;,&quot;elbow&quot;:&quot;vertical&quot;,&quot;curved&quot;:0,&quot;rounded&quot;:0};" vertex="1" parent="1">
          <mxGeometry x="560" y="60" width="120" height="850" as="geometry" />
        </mxCell>
        <mxCell id="sdndvzC6xCfLdtrrBHmv-5" value="" style="html=1;points=[];perimeter=orthogonalPerimeter;outlineConnect=0;targetShapes=umlLifeline;portConstraint=eastwest;newEdgeStyle={&quot;edgeStyle&quot;:&quot;elbowEdgeStyle&quot;,&quot;elbow&quot;:&quot;vertical&quot;,&quot;curved&quot;:0,&quot;rounded&quot;:0};" vertex="1" parent="sdndvzC6xCfLdtrrBHmv-4">
          <mxGeometry x="55" y="350" width="10" height="90" as="geometry" />
        </mxCell>
        <mxCell id="sdndvzC6xCfLdtrrBHmv-6" value="點選登入" style="html=1;verticalAlign=bottom;endArrow=block;edgeStyle=elbowEdgeStyle;elbow=vertical;curved=0;rounded=0;" edge="1" parent="1" source="sdndvzC6xCfLdtrrBHmv-3" target="sdndvzC6xCfLdtrrBHmv-2">
          <mxGeometry width="80" relative="1" as="geometry">
            <mxPoint x="250" y="230" as="sourcePoint" />
            <mxPoint x="330" y="230" as="targetPoint" />
            <Array as="points">
              <mxPoint x="150" y="140" />
            </Array>
          </mxGeometry>
        </mxCell>
        <mxCell id="sdndvzC6xCfLdtrrBHmv-7" value="顯示登入介面" style="html=1;verticalAlign=bottom;endArrow=open;dashed=1;endSize=8;edgeStyle=elbowEdgeStyle;elbow=vertical;curved=0;rounded=0;" edge="1" parent="1" source="sdndvzC6xCfLdtrrBHmv-2" target="sdndvzC6xCfLdtrrBHmv-3">
          <mxGeometry relative="1" as="geometry">
            <mxPoint x="330" y="230" as="sourcePoint" />
            <mxPoint x="250" y="230" as="targetPoint" />
            <Array as="points">
              <mxPoint x="160" y="220" />
            </Array>
          </mxGeometry>
        </mxCell>
        <mxCell id="sdndvzC6xCfLdtrrBHmv-8" value=":登入控制器" style="shape=umlLifeline;perimeter=lifelinePerimeter;whiteSpace=wrap;html=1;container=0;dropTarget=0;collapsible=0;recursiveResize=0;outlineConnect=0;portConstraint=eastwest;newEdgeStyle={&quot;edgeStyle&quot;:&quot;elbowEdgeStyle&quot;,&quot;elbow&quot;:&quot;vertical&quot;,&quot;curved&quot;:0,&quot;rounded&quot;:0};" vertex="1" parent="1">
          <mxGeometry x="360" y="60" width="120" height="850" as="geometry" />
        </mxCell>
        <mxCell id="sdndvzC6xCfLdtrrBHmv-9" value="" style="html=1;points=[];perimeter=orthogonalPerimeter;outlineConnect=0;targetShapes=umlLifeline;portConstraint=eastwest;newEdgeStyle={&quot;edgeStyle&quot;:&quot;elbowEdgeStyle&quot;,&quot;elbow&quot;:&quot;vertical&quot;,&quot;curved&quot;:0,&quot;rounded&quot;:0};" vertex="1" parent="sdndvzC6xCfLdtrrBHmv-8">
          <mxGeometry x="55" y="230" width="10" height="500" as="geometry" />
        </mxCell>
        <mxCell id="sdndvzC6xCfLdtrrBHmv-10" value="" style="html=1;points=[];perimeter=orthogonalPerimeter;outlineConnect=0;targetShapes=umlLifeline;portConstraint=eastwest;newEdgeStyle={&quot;edgeStyle&quot;:&quot;elbowEdgeStyle&quot;,&quot;elbow&quot;:&quot;vertical&quot;,&quot;curved&quot;:0,&quot;rounded&quot;:0};" vertex="1" parent="sdndvzC6xCfLdtrrBHmv-8">
          <mxGeometry x="65" y="280" width="10" height="50" as="geometry" />
        </mxCell>
        <mxCell id="sdndvzC6xCfLdtrrBHmv-11" value="計算密碼之SHA256值" style="html=1;align=left;spacingLeft=2;endArrow=block;rounded=0;edgeStyle=orthogonalEdgeStyle;curved=0;rounded=0;" edge="1" parent="sdndvzC6xCfLdtrrBHmv-8" source="sdndvzC6xCfLdtrrBHmv-9" target="sdndvzC6xCfLdtrrBHmv-10">
          <mxGeometry relative="1" as="geometry">
            <mxPoint x="70" y="250" as="sourcePoint" />
            <Array as="points">
              <mxPoint x="100" y="250" />
              <mxPoint x="100" y="290" />
            </Array>
          </mxGeometry>
        </mxCell>
        <mxCell id="sdndvzC6xCfLdtrrBHmv-12" value="" style="html=1;points=[];perimeter=orthogonalPerimeter;outlineConnect=0;targetShapes=umlLifeline;portConstraint=eastwest;newEdgeStyle={&quot;edgeStyle&quot;:&quot;elbowEdgeStyle&quot;,&quot;elbow&quot;:&quot;vertical&quot;,&quot;curved&quot;:0,&quot;rounded&quot;:0};" vertex="1" parent="sdndvzC6xCfLdtrrBHmv-8">
          <mxGeometry x="65" y="500" width="10" height="50" as="geometry" />
        </mxCell>
        <mxCell id="sdndvzC6xCfLdtrrBHmv-13" value="比對兩者SHA256值" style="html=1;align=left;spacingLeft=2;endArrow=block;rounded=0;edgeStyle=orthogonalEdgeStyle;curved=0;rounded=0;" edge="1" parent="sdndvzC6xCfLdtrrBHmv-8" source="sdndvzC6xCfLdtrrBHmv-9" target="sdndvzC6xCfLdtrrBHmv-12">
          <mxGeometry relative="1" as="geometry">
            <mxPoint x="65" y="470" as="sourcePoint" />
            <Array as="points">
              <mxPoint x="100" y="470" />
              <mxPoint x="100" y="510" />
            </Array>
          </mxGeometry>
        </mxCell>
        <mxCell id="sdndvzC6xCfLdtrrBHmv-14" value="" style="html=1;points=[];perimeter=orthogonalPerimeter;outlineConnect=0;targetShapes=umlLifeline;portConstraint=eastwest;newEdgeStyle={&quot;edgeStyle&quot;:&quot;elbowEdgeStyle&quot;,&quot;elbow&quot;:&quot;vertical&quot;,&quot;curved&quot;:0,&quot;rounded&quot;:0};" vertex="1" parent="sdndvzC6xCfLdtrrBHmv-8">
          <mxGeometry x="65" y="600" width="10" height="50" as="geometry" />
        </mxCell>
        <mxCell id="sdndvzC6xCfLdtrrBHmv-15" value="將帳號名稱寫入session" style="html=1;align=left;spacingLeft=2;endArrow=block;rounded=0;edgeStyle=orthogonalEdgeStyle;curved=0;rounded=0;" edge="1" parent="sdndvzC6xCfLdtrrBHmv-8" target="sdndvzC6xCfLdtrrBHmv-14">
          <mxGeometry relative="1" as="geometry">
            <mxPoint x="65.00000000000023" y="570" as="sourcePoint" />
            <Array as="points">
              <mxPoint x="100" y="570" />
              <mxPoint x="100" y="610" />
            </Array>
          </mxGeometry>
        </mxCell>
        <mxCell id="sdndvzC6xCfLdtrrBHmv-16" value="發送帳號資料" style="html=1;verticalAlign=bottom;endArrow=block;edgeStyle=elbowEdgeStyle;elbow=vertical;curved=0;rounded=0;" edge="1" parent="1" source="sdndvzC6xCfLdtrrBHmv-3" target="sdndvzC6xCfLdtrrBHmv-9">
          <mxGeometry x="-0.4633" width="80" relative="1" as="geometry">
            <mxPoint x="75" y="300" as="sourcePoint" />
            <mxPoint x="240" y="300" as="targetPoint" />
            <Array as="points">
              <mxPoint x="160" y="300" />
            </Array>
            <mxPoint as="offset" />
          </mxGeometry>
        </mxCell>
        <mxCell id="sdndvzC6xCfLdtrrBHmv-17" value="查詢帳號" style="html=1;verticalAlign=bottom;endArrow=block;edgeStyle=elbowEdgeStyle;elbow=vertical;curved=0;rounded=0;" edge="1" parent="1" source="sdndvzC6xCfLdtrrBHmv-9" target="sdndvzC6xCfLdtrrBHmv-5">
          <mxGeometry width="80" relative="1" as="geometry">
            <mxPoint x="414" y="450" as="sourcePoint" />
            <mxPoint x="579" y="450" as="targetPoint" />
            <Array as="points">
              <mxPoint x="510" y="420" />
            </Array>
          </mxGeometry>
        </mxCell>
        <mxCell id="sdndvzC6xCfLdtrrBHmv-18" value="回傳帳號資料" style="html=1;verticalAlign=bottom;endArrow=open;dashed=1;endSize=8;edgeStyle=elbowEdgeStyle;elbow=vertical;curved=0;rounded=0;" edge="1" parent="1" source="sdndvzC6xCfLdtrrBHmv-5" target="sdndvzC6xCfLdtrrBHmv-9">
          <mxGeometry relative="1" as="geometry">
            <mxPoint x="585" y="500" as="sourcePoint" />
            <mxPoint x="420" y="500" as="targetPoint" />
            <Array as="points">
              <mxPoint x="515" y="500" />
            </Array>
          </mxGeometry>
        </mxCell>
        <mxCell id="sdndvzC6xCfLdtrrBHmv-19" value="導向首頁" style="html=1;verticalAlign=bottom;endArrow=open;dashed=1;endSize=8;edgeStyle=elbowEdgeStyle;elbow=vertical;curved=0;rounded=0;" edge="1" parent="1" source="sdndvzC6xCfLdtrrBHmv-9">
          <mxGeometry relative="1" as="geometry">
            <mxPoint x="230" y="750" as="sourcePoint" />
            <mxPoint x="64.81034482758605" y="750" as="targetPoint" />
            <Array as="points">
              <mxPoint x="175" y="750" />
            </Array>
          </mxGeometry>
        </mxCell>
      </root>
    </mxGraphModel>
  </diagram>
</mxfile>
